<svg width="154" height="32" viewBox="0 0 154 32" fill="none" xmlns="http://www.w3.org/2000/svg">
<path d="M42.9961 13.64L49.9901 23H45.8561L39.3561 14.472V23H35.7681V4.8H39.3561V12.834L45.5961 4.8H49.7301L42.9961 13.64ZM60.3203 11.534V10H63.6743V23H60.3203V21.466C59.3149 22.7313 57.9023 23.364 56.0823 23.364C54.3489 23.364 52.8583 22.7053 51.6103 21.388C50.3796 20.0533 49.7642 18.424 49.7642 16.5C49.7642 14.5933 50.3796 12.9727 51.6103 11.638C52.8583 10.3033 54.3489 9.636 56.0823 9.636C57.9023 9.636 59.3149 10.2687 60.3203 11.534ZM54.1323 19.152C54.8083 19.828 55.6663 20.166 56.7063 20.166C57.7463 20.166 58.6043 19.828 59.2803 19.152C59.9736 18.4587 60.3203 17.5747 60.3203 16.5C60.3203 15.4253 59.9736 14.55 59.2803 13.874C58.6043 13.1807 57.7463 12.834 56.7063 12.834C55.6663 12.834 54.8083 13.1807 54.1323 13.874C53.4563 14.55 53.1183 15.4253 53.1183 16.5C53.1183 17.5747 53.4563 18.4587 54.1323 19.152ZM70.0696 23H66.7156V4.02H70.0696V23ZM85.7755 17.878H75.9735C76.4068 19.5073 77.6288 20.322 79.6395 20.322C80.9221 20.322 81.8928 19.8887 82.5515 19.022L85.2555 20.582C83.9728 22.4367 82.0835 23.364 79.5875 23.364C77.4381 23.364 75.7135 22.714 74.4135 21.414C73.1135 20.114 72.4635 18.476 72.4635 16.5C72.4635 14.5587 73.1048 12.9293 74.3875 11.612C75.6528 10.2947 77.2995 9.636 79.3275 9.636C81.2515 9.636 82.8201 10.2947 84.0335 11.612C85.2815 12.9293 85.9055 14.5587 85.9055 16.5C85.9055 16.864 85.8621 17.3233 85.7755 17.878ZM75.9215 15.278H82.5515C82.3608 14.4287 81.9708 13.7787 81.3815 13.328C80.8095 12.8773 80.1248 12.652 79.3275 12.652C78.4261 12.652 77.6808 12.886 77.0915 13.354C76.5021 13.8047 76.1121 14.446 75.9215 15.278ZM89.9109 8.44C89.3562 8.44 88.8709 8.24067 88.4549 7.842C88.0562 7.426 87.8569 6.94067 87.8569 6.386C87.8569 5.83133 88.0562 5.346 88.4549 4.93C88.8709 4.514 89.3562 4.306 89.9109 4.306C90.4829 4.306 90.9682 4.514 91.3669 4.93C91.7829 5.346 91.9909 5.83133 91.9909 6.386C91.9909 6.94067 91.7829 7.426 91.3669 7.842C90.9682 8.24067 90.4829 8.44 89.9109 8.44ZM91.6009 23H88.2469V10H91.6009V23ZM104.525 11.534V4.8H107.879V23H104.525V21.466C103.537 22.7313 102.133 23.364 100.313 23.364C98.5621 23.364 97.0627 22.7053 95.8147 21.388C94.5841 20.0533 93.9687 18.424 93.9687 16.5C93.9687 14.5933 94.5841 12.9727 95.8147 11.638C97.0627 10.3033 98.5621 9.636 100.313 9.636C102.133 9.636 103.537 10.2687 104.525 11.534ZM98.3367 19.152C99.0474 19.828 99.9141 20.166 100.937 20.166C101.977 20.166 102.835 19.828 103.511 19.152C104.187 18.4587 104.525 17.5747 104.525 16.5C104.525 15.4253 104.187 14.55 103.511 13.874C102.835 13.1807 101.977 12.834 100.937 12.834C99.8967 12.834 99.0301 13.1807 98.3367 13.874C97.6607 14.55 97.3227 15.4253 97.3227 16.5C97.3227 17.5747 97.6607 18.4587 98.3367 19.152ZM122.022 21.388C120.705 22.7053 119.075 23.364 117.134 23.364C115.193 23.364 113.563 22.7053 112.246 21.388C110.929 20.0707 110.27 18.4413 110.27 16.5C110.27 14.576 110.929 12.9553 112.246 11.638C113.581 10.3033 115.21 9.636 117.134 9.636C119.058 9.636 120.687 10.3033 122.022 11.638C123.357 12.9727 124.024 14.5933 124.024 16.5C124.024 18.424 123.357 20.0533 122.022 21.388ZM114.612 19.074C115.288 19.75 116.129 20.088 117.134 20.088C118.139 20.088 118.98 19.75 119.656 19.074C120.332 18.398 120.67 17.54 120.67 16.5C120.67 15.46 120.332 14.602 119.656 13.926C118.98 13.25 118.139 12.912 117.134 12.912C116.129 12.912 115.288 13.25 114.612 13.926C113.953 14.6193 113.624 15.4773 113.624 16.5C113.624 17.5227 113.953 18.3807 114.612 19.074ZM130.215 10H137.391V23H134.037V13.224H130.215V23H126.861V13.224H124.989V10H126.861V9.87C126.861 6.24733 128.898 4.436 132.971 4.436C133.838 4.436 134.852 4.55733 136.013 4.8V7.868C134.765 7.72933 133.751 7.66 132.971 7.66C132.001 7.66 131.299 7.82467 130.865 8.154C130.432 8.48333 130.215 9.05533 130.215 9.87V10ZM147.678 9.636C149.117 9.636 150.287 10.1127 151.188 11.066C152.124 12.0367 152.592 13.354 152.592 15.018V23H149.238V15.434C149.238 14.5847 149.004 13.926 148.536 13.458C148.085 12.99 147.461 12.756 146.664 12.756C145.78 12.756 145.078 13.0333 144.558 13.588C144.055 14.1253 143.804 14.9227 143.804 15.98V23H140.45V10H143.804V11.456C144.601 10.2427 145.893 9.636 147.678 9.636Z" fill="black"/>
<path fill-rule="evenodd" clip-rule="evenodd" d="M9.57659 5.856L9.92182 5.51076C12.1741 3.25845 15.8258 3.25845 18.0781 5.51077L18.3789 5.8115C17.5687 5.93826 16.7742 6.15609 16.0119 6.462C15.2435 6.77033 14.5164 7.16467 13.8449 7.6361C13.1732 7.16442 12.4458 6.76988 11.677 6.46141C10.9985 6.18912 10.2945 5.98661 9.57659 5.856ZM7.92656 7.50603L5.80161 9.63099C5.80231 10.7891 6.02365 11.9351 6.4524 13.0036C6.70754 13.6394 7.03302 14.2401 7.42104 14.7941C8.14875 14.1746 8.95707 13.6596 9.82412 13.265C9.94165 12.8496 10.0861 12.4411 10.2568 12.0418C10.762 10.8601 11.4883 9.78187 12.3968 8.86075C11.955 8.58524 11.4873 8.3477 10.9988 8.15169C10.0228 7.76005 8.98206 7.54146 7.92656 7.50603ZM4.11246 11.3202L3.51051 11.9221C1.25821 14.1744 1.2582 17.8261 3.51051 20.0784L3.95722 20.5252C4.08298 19.9803 4.2507 19.4453 4.45941 18.9251C4.86971 17.9027 5.43229 16.9532 6.12615 16.1108C5.56998 15.3679 5.111 14.5513 4.76212 13.6818C4.45688 12.9212 4.23933 12.1285 4.11246 11.3202ZM3.67878 22.8224C3.678 22.8754 3.67762 22.9284 3.67762 22.9815H3.83785L8.63398 27.7776C11.5975 30.7412 16.4024 30.7412 19.366 27.7776L24.1621 22.9815H24.3188C24.3188 22.9296 24.3185 22.8777 24.3177 22.8259L25.7773 21.3663C28.7408 18.4027 28.7408 13.5978 25.7773 10.6343L19.366 4.22292C16.4024 1.25935 11.5975 1.25935 8.63398 4.22292L2.22267 10.6343C-0.740888 13.5978 -0.740892 18.4027 2.22267 21.3663L3.67878 22.8224ZM24.0399 20.528L24.4894 20.0784C26.7418 17.8261 26.7418 14.1744 24.4895 11.9221L24.397 11.8297C24.2668 12.4616 24.0806 13.0817 23.8397 13.6818C23.4295 14.7043 22.8669 15.6538 22.173 16.4962C22.7292 17.2391 23.1882 18.0557 23.537 18.9251C23.7461 19.4462 23.914 19.9822 24.0399 20.528ZM22.7813 10.2139L20.0682 7.50086V7.50149C18.9083 7.50149 17.7603 7.72285 16.6901 8.15228C16.2019 8.34818 15.7344 8.58557 15.2929 8.86089C16.201 9.78185 16.927 10.8598 17.4321 12.0412C17.5821 12.3918 17.7117 12.7496 17.8206 13.1128C17.8663 13.1315 17.9118 13.1506 17.9573 13.17C19.0555 13.6396 20.0644 14.3001 20.9409 15.1204C21.436 14.4786 21.8434 13.7664 22.1495 13.0036C22.5061 12.1148 22.7193 11.1723 22.7813 10.2139ZM22.456 22.1119C22.3734 21.2505 22.1685 20.4051 21.8468 19.6034C21.5916 18.9676 21.2661 18.3669 20.8781 17.8129C20.0906 18.4833 19.2086 19.0313 18.26 19.4369C18.0207 19.5393 17.7781 19.6321 17.5327 19.7154C17.5003 19.7971 17.4667 19.8784 17.4321 19.9593C16.9269 21.1409 16.2007 22.2192 15.2922 23.1403C15.7339 23.4158 16.2017 23.6533 16.6901 23.8493C17.7602 24.2787 18.908 24.5001 20.0678 24.5001L22.456 22.1119ZM18.3779 26.19C17.5681 26.0632 16.7739 25.8454 16.0119 25.5396C15.2432 25.2312 14.5158 24.8366 13.844 24.3649C13.1726 24.8364 12.4454 25.2307 11.677 25.539C10.9984 25.8113 10.2944 26.0138 9.5765 26.1445L9.92182 26.4898C12.1741 28.7421 15.8258 28.7421 18.0781 26.4898L18.3779 26.19ZM7.92647 24.4944L5.54078 22.1087C5.62355 21.2484 5.82838 20.4041 6.14969 19.6034C6.45579 18.8406 6.86314 18.1284 7.35824 17.4866C8.14158 18.2197 9.0307 18.8252 9.99485 19.2808C10.0738 19.5098 10.1612 19.7363 10.2568 19.9599C10.7619 21.1412 11.4879 22.2192 12.396 23.1401C11.9545 23.4155 11.487 23.6528 10.9988 23.8488C10.0227 24.2404 8.982 24.459 7.92647 24.4944ZM9.48241 16.8769C9.17952 16.661 8.88996 16.4246 8.61571 16.169C8.88304 15.9424 9.1632 15.7331 9.45456 15.5422C9.44757 15.6948 9.44407 15.8477 9.44407 16.0008C9.44407 16.2937 9.45691 16.586 9.48241 16.8769ZM11.2654 16.0008C11.2654 15.5322 11.3055 15.0654 11.3849 14.6051C12.2282 14.3228 13.11 14.1786 13.9982 14.1786C14.7728 14.1786 15.5425 14.2883 16.286 14.5035C16.3773 14.9965 16.4236 15.4973 16.4236 16.0002C16.4236 16.753 16.32 17.5011 16.1166 18.2252C15.5214 18.36 14.9127 18.4284 14.3009 18.4284C13.3453 18.4284 12.3972 18.2615 11.4964 17.9353C11.3432 17.3024 11.2654 16.6534 11.2654 16.0008ZM13.8556 10.0004C14.6011 10.7227 15.2045 11.5671 15.6388 12.4924C15.0977 12.4027 14.5491 12.3573 13.9982 12.3573C13.3331 12.3573 12.6712 12.4235 12.0218 12.5539C12.458 11.6048 13.0715 10.7391 13.8334 10.001L13.8448 9.98998L13.8556 10.0004ZM18.2449 16.0002C18.2449 15.7808 18.2377 15.5618 18.2233 15.3435C18.7452 15.6532 19.2348 16.0199 19.6835 16.438C19.2052 16.8434 18.6859 17.1933 18.1348 17.4818C18.2079 16.9923 18.2449 16.4972 18.2449 16.0002ZM12.3311 20.0544C12.9784 20.1839 13.638 20.2497 14.3009 20.2497C14.6258 20.2497 14.95 20.2339 15.2722 20.2025C14.8861 20.8579 14.4101 21.4628 13.8556 22L13.8442 22.0111L13.8334 22.0006C13.2371 21.423 12.7317 20.7672 12.3311 20.0544Z" fill="black"/>
</svg>
