<svg width="153" height="28" viewBox="0 0 153 28" fill="none" xmlns="http://www.w3.org/2000/svg">
<path d="M42.9956 13.62L49.9896 22.98H45.8556L39.3556 14.452V22.98H35.7676V4.78H39.3556V12.814L45.5956 4.78H49.7296L42.9956 13.62Z" fill="black"/>
<path d="M60.3197 11.514V9.98H63.6737V22.98H60.3197V21.446C59.3144 22.7113 57.9017 23.344 56.0817 23.344C54.3484 23.344 52.8577 22.6853 51.6097 21.368C50.379 20.0333 49.7637 18.404 49.7637 16.48C49.7637 14.5733 50.379 12.9527 51.6097 11.618C52.8577 10.2833 54.3484 9.616 56.0817 9.616C57.9017 9.616 59.3144 10.2487 60.3197 11.514ZM54.1317 19.132C54.8077 19.808 55.6657 20.146 56.7057 20.146C57.7457 20.146 58.6037 19.808 59.2797 19.132C59.973 18.4387 60.3197 17.5547 60.3197 16.48C60.3197 15.4053 59.973 14.53 59.2797 13.854C58.6037 13.1607 57.7457 12.814 56.7057 12.814C55.6657 12.814 54.8077 13.1607 54.1317 13.854C53.4557 14.53 53.1177 15.4053 53.1177 16.48C53.1177 17.5547 53.4557 18.4387 54.1317 19.132Z" fill="black"/>
<path d="M70.0691 22.98H66.7151V4H70.0691V22.98Z" fill="black"/>
<path d="M85.7749 17.858H75.9729C76.4063 19.4873 77.6283 20.302 79.6389 20.302C80.9216 20.302 81.8923 19.8687 82.5509 19.002L85.2549 20.562C83.9723 22.4167 82.0829 23.344 79.5869 23.344C77.4376 23.344 75.7129 22.694 74.4129 21.394C73.1129 20.094 72.4629 18.456 72.4629 16.48C72.4629 14.5387 73.1043 12.9093 74.3869 11.592C75.6523 10.2747 77.2989 9.616 79.3269 9.616C81.2509 9.616 82.8196 10.2747 84.0329 11.592C85.2809 12.9093 85.9049 14.5387 85.9049 16.48C85.9049 16.844 85.8616 17.3033 85.7749 17.858ZM75.9209 15.258H82.5509C82.3603 14.4087 81.9703 13.7587 81.3809 13.308C80.8089 12.8573 80.1243 12.632 79.3269 12.632C78.4256 12.632 77.6803 12.866 77.0909 13.334C76.5016 13.7847 76.1116 14.426 75.9209 15.258Z" fill="black"/>
<path d="M89.9103 8.42C89.3557 8.42 88.8703 8.22067 88.4543 7.822C88.0557 7.406 87.8563 6.92067 87.8563 6.366C87.8563 5.81133 88.0557 5.326 88.4543 4.91C88.8703 4.494 89.3557 4.286 89.9103 4.286C90.4823 4.286 90.9677 4.494 91.3663 4.91C91.7823 5.326 91.9903 5.81133 91.9903 6.366C91.9903 6.92067 91.7823 7.406 91.3663 7.822C90.9677 8.22067 90.4823 8.42 89.9103 8.42ZM91.6003 22.98H88.2463V9.98H91.6003V22.98Z" fill="black"/>
<path d="M104.524 11.514V4.78H107.878V22.98H104.524V21.446C103.536 22.7113 102.132 23.344 100.312 23.344C98.5615 23.344 97.0622 22.6853 95.8142 21.368C94.5835 20.0333 93.9682 18.404 93.9682 16.48C93.9682 14.5733 94.5835 12.9527 95.8142 11.618C97.0622 10.2833 98.5615 9.616 100.312 9.616C102.132 9.616 103.536 10.2487 104.524 11.514ZM98.3362 19.132C99.0468 19.808 99.9135 20.146 100.936 20.146C101.976 20.146 102.834 19.808 103.51 19.132C104.186 18.4387 104.524 17.5547 104.524 16.48C104.524 15.4053 104.186 14.53 103.51 13.854C102.834 13.1607 101.976 12.814 100.936 12.814C99.8962 12.814 99.0295 13.1607 98.3362 13.854C97.6602 14.53 97.3222 15.4053 97.3222 16.48C97.3222 17.5547 97.6602 18.4387 98.3362 19.132Z" fill="black"/>
<path d="M122.022 21.368C120.704 22.6853 119.075 23.344 117.134 23.344C115.192 23.344 113.563 22.6853 112.246 21.368C110.928 20.0507 110.27 18.4213 110.27 16.48C110.27 14.556 110.928 12.9353 112.246 11.618C113.58 10.2833 115.21 9.616 117.134 9.616C119.058 9.616 120.687 10.2833 122.022 11.618C123.356 12.9527 124.024 14.5733 124.024 16.48C124.024 18.404 123.356 20.0333 122.022 21.368ZM114.612 19.054C115.288 19.73 116.128 20.068 117.134 20.068C118.139 20.068 118.98 19.73 119.656 19.054C120.332 18.378 120.67 17.52 120.67 16.48C120.67 15.44 120.332 14.582 119.656 13.906C118.98 13.23 118.139 12.892 117.134 12.892C116.128 12.892 115.288 13.23 114.612 13.906C113.953 14.5993 113.624 15.4573 113.624 16.48C113.624 17.5027 113.953 18.3607 114.612 19.054Z" fill="black"/>
<path d="M130.215 9.98H137.391V22.98H134.037V13.204H130.215V22.98H126.861V13.204H124.989V9.98H126.861V9.85C126.861 6.22733 128.897 4.416 132.971 4.416C133.837 4.416 134.851 4.53733 136.013 4.78V7.848C134.765 7.70933 133.751 7.64 132.971 7.64C132 7.64 131.298 7.80467 130.865 8.134C130.431 8.46333 130.215 9.03533 130.215 9.85V9.98Z" fill="black"/>
<path d="M147.677 9.616C149.116 9.616 150.286 10.0927 151.187 11.046C152.123 12.0167 152.591 13.334 152.591 14.998V22.98H149.237V15.414C149.237 14.5647 149.003 13.906 148.535 13.438C148.085 12.97 147.461 12.736 146.663 12.736C145.779 12.736 145.077 13.0133 144.557 13.568C144.055 14.1053 143.803 14.9027 143.803 15.96V22.98H140.449V9.98H143.803V11.436C144.601 10.2227 145.892 9.616 147.677 9.616Z" fill="black"/>
<path fill-rule="evenodd" clip-rule="evenodd" d="M9.57658 3.85577L9.92184 3.51051C12.1741 1.25821 15.8259 1.25821 18.0782 3.51052L18.3785 3.81081C17.5684 3.93758 16.7741 4.15539 16.0119 4.46124C15.2433 4.76964 14.5161 5.16406 13.8445 5.6356C13.1729 5.16404 12.4456 4.76959 11.6771 4.46118C10.9985 4.18889 10.2945 3.98638 9.57658 3.85577ZM7.92655 5.50581L5.80163 7.63072C5.8023 8.78889 6.02364 9.93499 6.45242 11.0035C6.70756 11.6394 7.03306 12.2401 7.42108 12.7941C8.14871 12.1747 8.95693 11.6598 9.82387 11.2651C9.94144 10.8495 10.0859 10.4406 10.2568 10.041C10.762 8.85948 11.4881 7.78136 12.3964 6.86031C11.9548 6.58489 11.4872 6.34743 10.9988 6.15146C10.0228 5.75982 8.98207 5.54123 7.92655 5.50581ZM4.11244 9.31991L3.51052 9.92184C1.25821 12.1741 1.25821 15.8259 3.51051 18.0782L3.95729 18.5249C4.08304 17.9802 4.25074 17.4452 4.45942 16.9252C4.86972 15.9027 5.43232 14.9532 6.12619 14.1108C5.57001 13.3678 5.11102 12.5512 4.76214 11.6818C4.45688 10.9211 4.23931 10.1284 4.11244 9.31991ZM3.67879 20.8221C3.67802 20.8752 3.67763 20.9283 3.67763 20.9815H3.83815L8.63399 25.7773C11.5976 28.7409 16.4024 28.7409 19.366 25.7773L24.1618 20.9815H24.3188C24.3188 20.9295 24.3185 20.8776 24.3177 20.8256L25.7773 19.366C28.7409 16.4024 28.7409 11.5976 25.7773 8.634L19.366 2.22268C16.4024 -0.740889 11.5976 -0.740893 8.634 2.22267L2.22268 8.634C-0.740889 11.5976 -0.740893 16.4024 2.22267 19.366L3.67879 20.8221ZM24.0398 18.5278L24.4895 18.0782C26.7418 15.8259 26.7418 12.1742 24.4895 9.92184L24.3971 9.82942C24.2669 10.4615 24.0806 11.0816 23.8398 11.6818C23.4295 12.7043 22.8669 13.6537 22.173 14.4962C22.7292 15.2391 23.1882 16.0557 23.537 16.9252C23.7461 17.4461 23.914 17.9821 24.0398 18.5278ZM22.7813 8.21363L20.0682 5.50056V5.50074C18.9083 5.50074 17.7603 5.7221 16.6901 6.15152C16.2018 6.34748 15.7342 6.58492 15.2926 6.86032C16.2009 7.78136 16.927 8.85945 17.4322 10.0409C17.5821 10.3917 17.7118 10.7496 17.8207 11.1129C17.8664 11.1316 17.9119 11.1507 17.9573 11.1701C19.0555 11.6397 20.0644 12.3001 20.9409 13.1204C21.436 12.4786 21.8434 11.7664 22.1495 11.0035C22.5062 10.1147 22.7193 9.17213 22.7813 8.21363ZM22.456 20.1117C22.3734 19.2504 22.1685 18.4051 21.8468 17.6034C21.5916 16.9676 21.2661 16.3669 20.8781 15.8129C20.0906 16.4833 19.2086 17.0313 18.26 17.4369C18.0207 17.5392 17.778 17.6321 17.5326 17.7154C17.5002 17.797 17.4667 17.8782 17.4322 17.959C16.927 19.1406 16.2009 20.2187 15.2925 21.1397C15.7342 21.4152 16.2018 21.6526 16.6901 21.8486C17.7603 22.278 18.9083 22.4994 20.0682 22.4994V22.4994L22.456 20.1117ZM18.3784 24.1893C17.5683 24.0625 16.7741 23.8447 16.0119 23.5389C15.2433 23.2305 14.516 22.836 13.8444 22.3645C13.1729 22.836 12.4456 23.2304 11.6771 23.5388C10.9985 23.8111 10.2945 24.0136 9.57657 24.1442L9.92184 24.4895C12.1741 26.7418 15.8259 26.7418 18.0782 24.4895L18.3784 24.1893ZM7.92653 22.4942L5.54082 20.1085C5.6236 19.2483 5.82842 18.4041 6.1497 17.6034C6.45581 16.8406 6.86317 16.1284 7.35829 15.4866C8.14169 16.2197 9.03089 16.8252 9.99513 17.2809C10.074 17.5096 10.1613 17.7358 10.2568 17.9591C10.762 19.1406 11.4881 20.2187 12.3964 21.1397C11.9547 21.4151 11.4871 21.6526 10.9988 21.8485C10.0228 22.2402 8.98205 22.4588 7.92653 22.4942ZM9.48247 14.8769C9.17958 14.6609 8.89002 14.4245 8.61576 14.1689C8.88306 13.9424 9.16319 13.7331 9.45452 13.5423C9.44756 13.6946 9.44406 13.8472 9.44406 14.0001C9.44406 14.2932 9.45692 14.5858 9.48247 14.8769ZM11.2653 14.0001C11.2653 13.5317 11.3054 13.0652 11.3847 12.6052C12.2281 12.3229 13.1099 12.1786 13.9982 12.1786C14.7728 12.1786 15.5425 12.2883 16.2861 12.5036C16.3774 12.9964 16.4236 13.4972 16.4236 14C16.4236 14.7528 16.32 15.501 16.1165 16.2251C15.5214 16.3599 14.9127 16.4283 14.301 16.4283C13.3454 16.4283 12.3974 16.2614 11.4966 15.9353C11.3433 15.3022 11.2653 14.6529 11.2653 14.0001ZM13.8556 8.00021C14.6012 8.72254 15.2047 9.56709 15.6389 10.4924C15.0978 10.4027 14.5492 10.3573 13.9982 10.3573C13.3329 10.3573 12.671 10.4236 12.0214 10.554C12.4576 9.60457 13.0712 8.73858 13.8333 8.00027L13.8445 7.98948L13.8556 8.00021ZM18.2449 14C18.2449 13.7807 18.2377 13.5617 18.2234 13.3435C18.7452 13.6532 19.2348 14.0199 19.6834 14.438C19.2052 14.8434 18.6859 15.1933 18.1348 15.4818C18.2079 14.9922 18.2449 14.4971 18.2449 14ZM12.3315 18.0544C12.9787 18.1839 13.6382 18.2496 14.301 18.2496C14.6258 18.2496 14.9499 18.2338 15.2721 18.2025C14.886 18.8578 14.4101 19.4626 13.8556 19.9998L13.8444 20.0106L13.8333 19.9998C13.2373 19.4224 12.7321 18.7669 12.3315 18.0544Z" fill="#28B2B6"/>
</svg>
