<svg width="34" height="39" viewBox="0 0 34 39" fill="none" xmlns="http://www.w3.org/2000/svg">
<path d="M1.93848 38.3453C3.40238 34.3671 6.51133 28.5941 11.0369 24.2469C15.5468 19.9148 21.3609 17.0816 28.3495 18.6518L28.7879 16.7004C20.9318 14.9353 14.4637 18.182 9.65144 22.8045C4.85495 27.412 1.6019 33.4686 0.0615218 37.6547L1.93848 38.3453ZM10.0679 15.736C10.0651 11.4526 12.9207 6.61431 21.6243 1.87838L20.6684 0.121616C11.6848 5.00988 8.06441 10.3834 8.06792 15.7373L10.0679 15.736ZM28.3495 18.6518C30.3147 19.0933 31.2326 19.6021 31.565 19.9647C31.6359 20.0421 31.6636 20.0957 31.6741 20.122C31.6834 20.1453 31.684 20.1579 31.6834 20.1687C31.682 20.1941 31.6635 20.3125 31.4806 20.5257C31.0981 20.9717 30.2749 21.5073 29.0253 22.0087C27.8067 22.4977 26.2882 22.9124 24.6332 23.1795C21.2996 23.7175 17.5711 23.6321 14.7289 22.4978C13.3207 21.9359 12.1666 21.1317 11.3638 20.0542C10.5676 18.9855 10.0691 17.5844 10.0679 15.736L8.06792 15.7373C8.06938 17.9682 8.67979 19.7991 9.75999 21.249C10.8336 22.6901 12.3233 23.6912 13.9876 24.3554C17.2904 25.6735 21.4216 25.7237 24.9518 25.154C26.7288 24.8672 28.3934 24.4173 29.7701 23.8648C31.1158 23.3249 32.3002 22.6423 32.9988 21.8277C33.3565 21.4106 33.6468 20.888 33.6804 20.2786C33.7154 19.6416 33.4614 19.0737 33.0393 18.6132C32.261 17.7643 30.8028 17.1531 28.7879 16.7004L28.3495 18.6518Z" fill="black"/>
</svg>
