<svg width="66" height="15" viewBox="0 0 66 15" fill="none" xmlns="http://www.w3.org/2000/svg">
<path d="M52.8646 14.3509C52.7866 14.7949 53.2246 15.1419 53.6106 14.9439L58.0005 12.6879L62.3894 14.9439C62.7754 15.1419 63.2134 14.7949 63.1354 14.3519L62.3054 9.62197L65.8274 6.26603C66.1574 5.95204 65.9874 5.37805 65.5454 5.31605L60.6475 4.62006L58.4635 0.293138C58.4219 0.205429 58.3563 0.131324 58.2742 0.0794347C58.1922 0.027545 58.0971 0 58 0C57.9029 0 57.8078 0.027545 57.7258 0.0794347C57.6438 0.131324 57.5781 0.205429 57.5365 0.293138L55.3526 4.62106L50.4546 5.31705C50.0137 5.37905 49.8427 5.95304 50.1717 6.26703L53.6946 9.62297L52.8646 14.3529V14.3509ZM57.7695 11.5839L54.0836 13.4779L54.7776 9.52097C54.7938 9.42988 54.7875 9.3362 54.759 9.24815C54.7306 9.1601 54.681 9.08037 54.6146 9.01598L51.7086 6.24603L55.7605 5.67004C55.8445 5.65737 55.924 5.62455 55.9925 5.57439C56.0609 5.52424 56.1162 5.45824 56.1535 5.38205L57.9985 1.72411L59.8455 5.38205C59.8828 5.45824 59.9381 5.52424 60.0065 5.57439C60.075 5.62455 60.1546 5.65737 60.2385 5.67004L64.2904 6.24503L61.3844 9.01498C61.3178 9.07947 61.2681 9.15936 61.2397 9.24761C61.2113 9.33585 61.205 9.42973 61.2214 9.52097L61.9154 13.4779L58.2295 11.5839C58.1582 11.5472 58.0792 11.528 57.999 11.528C57.9188 11.528 57.8398 11.5472 57.7685 11.5839H57.7695Z" fill="black"/>
<path d="M27.8646 14.3509C27.7866 14.7949 28.2246 15.1419 28.6106 14.9439L33.0005 12.6879L37.3894 14.9439C37.7754 15.1419 38.2134 14.7949 38.1354 14.3519L37.3054 9.62197L40.8274 6.26603C41.1574 5.95204 40.9874 5.37805 40.5454 5.31605L35.6475 4.62006L33.4635 0.293138C33.4219 0.205429 33.3563 0.131324 33.2742 0.0794347C33.1922 0.027545 33.0971 0 33 0C32.9029 0 32.8078 0.027545 32.7258 0.0794347C32.6438 0.131324 32.5781 0.205429 32.5365 0.293138L30.3526 4.62106L25.4546 5.31705C25.0137 5.37905 24.8427 5.95304 25.1717 6.26703L28.6946 9.62297L27.8646 14.3529V14.3509ZM32.7695 11.5839L29.0836 13.4779L29.7776 9.52097C29.7938 9.42988 29.7875 9.3362 29.759 9.24815C29.7306 9.1601 29.681 9.08037 29.6146 9.01598L26.7086 6.24603L30.7605 5.67004C30.8445 5.65737 30.924 5.62455 30.9925 5.57439C31.0609 5.52424 31.1162 5.45824 31.1535 5.38205L32.9985 1.72411L34.8455 5.38205C34.8828 5.45824 34.9381 5.52424 35.0065 5.57439C35.075 5.62455 35.1546 5.65737 35.2385 5.67004L39.2904 6.24503L36.3844 9.01498C36.3178 9.07947 36.2681 9.15936 36.2397 9.24761C36.2113 9.33585 36.205 9.42973 36.2214 9.52097L36.9154 13.4779L33.2295 11.5839C33.1582 11.5472 33.0792 11.528 32.999 11.528C32.9188 11.528 32.8398 11.5472 32.7685 11.5839H32.7695Z" fill="black"/>
<path d="M2.8646 14.3509C2.7866 14.7949 3.22459 15.1419 3.61059 14.9439L8.00051 12.6879L12.3894 14.9439C12.7754 15.1419 13.2134 14.7949 13.1354 14.3519L12.3054 9.62197L15.8274 6.26603C16.1574 5.95204 15.9874 5.37805 15.5454 5.31605L10.6475 4.62006L8.4635 0.293138C8.4219 0.205429 8.35626 0.131324 8.27421 0.0794347C8.19217 0.027545 8.09708 0 8.00001 0C7.90293 0 7.80785 0.027545 7.7258 0.0794347C7.64376 0.131324 7.57812 0.205429 7.53652 0.293138L5.35256 4.62106L0.454645 5.31705C0.0136532 5.37905 -0.157344 5.95304 0.17165 6.26703L3.69459 9.62297L2.8646 14.3529V14.3509ZM7.76951 11.5839L4.08358 13.4779L4.77757 9.52097C4.79382 9.42988 4.78746 9.3362 4.75904 9.24815C4.73062 9.1601 4.68101 9.08037 4.61457 9.01598L1.70862 6.24603L5.76055 5.67004C5.84445 5.65737 5.92403 5.62455 5.99248 5.57439C6.06092 5.52424 6.11619 5.45824 6.15354 5.38205L7.99851 1.72411L9.84547 5.38205C9.88283 5.45824 9.93809 5.52424 10.0065 5.57439C10.075 5.62455 10.1546 5.65737 10.2385 5.67004L14.2904 6.24503L11.3844 9.01498C11.3178 9.07947 11.2681 9.15936 11.2397 9.24761C11.2113 9.33585 11.205 9.42973 11.2214 9.52097L11.9154 13.4779L8.2295 11.5839C8.15823 11.5472 8.0792 11.528 7.99901 11.528C7.91882 11.528 7.83979 11.5472 7.76851 11.5839H7.76951Z" fill="black"/>
</svg>
