<svg width="78" height="19" viewBox="0 0 78 19" fill="none" xmlns="http://www.w3.org/2000/svg">
<path d="M3.43754 17.2212C3.34394 17.7539 3.86953 18.1703 4.33273 17.9327L9.60066 15.2256L14.8674 17.9327C15.3306 18.1703 15.8562 17.7539 15.7626 17.2224L14.7666 11.5464L18.9929 7.51928C19.3889 7.14248 19.1849 6.45369 18.6545 6.37929L12.777 5.5441L10.1563 0.351768C10.1063 0.246516 10.0276 0.15759 9.92911 0.0953222C9.83066 0.0330541 9.71655 0 9.60006 0C9.48357 0 9.36947 0.0330541 9.27101 0.0953222C9.17256 0.15759 9.09379 0.246516 9.04387 0.351768L6.4231 5.5453L0.545577 6.38049C0.0163839 6.45489 -0.188813 7.14368 0.205981 7.52048L4.43353 11.5476L3.43754 17.2236V17.2212Z" fill="#28B2B6"/>
<path d="M32.4375 17.2212C32.3439 17.7539 32.8695 18.1703 33.3327 17.9327L38.6007 15.2256L43.8674 17.9327C44.3306 18.1703 44.8562 17.7539 44.7626 17.2224L43.7666 11.5464L47.9929 7.51928C48.3889 7.14248 48.1849 6.45369 47.6545 6.37929L41.777 5.5441L39.1563 0.351768C39.1063 0.246516 39.0276 0.15759 38.9291 0.0953222C38.8307 0.0330541 38.7166 0 38.6001 0C38.4836 0 38.3695 0.0330541 38.271 0.0953222C38.1726 0.15759 38.0938 0.246516 38.0439 0.351768L35.4231 5.5453L29.5456 6.38049C29.0164 6.45489 28.8112 7.14368 29.206 7.52048L33.4335 11.5476L32.4375 17.2236V17.2212Z" fill="#28B2B6"/>
<path d="M61.4375 17.2212C61.3439 17.7539 61.8695 18.1703 62.3327 17.9327L67.6007 15.2256L72.8674 17.9327C73.3306 18.1703 73.8562 17.7539 73.7626 17.2224L72.7666 11.5464L76.9929 7.51928C77.3889 7.14248 77.1849 6.45369 76.6545 6.37929L70.777 5.5441L68.1563 0.351768C68.1063 0.246516 68.0276 0.15759 67.9291 0.0953222C67.8307 0.0330541 67.7166 0 67.6001 0C67.4836 0 67.3695 0.0330541 67.271 0.0953222C67.1726 0.15759 67.0938 0.246516 67.0439 0.351768L64.4231 5.5453L58.5456 6.38049C58.0164 6.45489 57.8112 7.14368 58.206 7.52048L62.4335 11.5476L61.4375 17.2236V17.2212Z" fill="#28B2B6"/>
</svg>
